<?xml version="1.0" encoding="UTF-8" standalone="no"?>
<!-- Uploaded to: SVG Repo, www.svgrepo.com, Generator: SVG Repo Mixer Tools -->

<svg
   fill="#000000"
   height="800px"
   width="800px"
   version="1.1"
   id="Layer_1"
   viewBox="0 0 511.984 511.984"
   xml:space="preserve"
   sodipodi:docname="gift-svgrepo-com(1).svg"
   inkscape:version="1.4 (1:1.4+202410161351+e7c3feb100)"
   xmlns:inkscape="http://www.inkscape.org/namespaces/inkscape"
   xmlns:sodipodi="http://sodipodi.sourceforge.net/DTD/sodipodi-0.dtd"
   xmlns="http://www.w3.org/2000/svg"
   xmlns:svg="http://www.w3.org/2000/svg"><defs
   id="defs4">
		
	
			
			
		</defs><sodipodi:namedview
   id="namedview4"
   pagecolor="#ffffff"
   bordercolor="#000000"
   borderopacity="0.25"
   inkscape:showpageshadow="2"
   inkscape:pageopacity="0.0"
   inkscape:pagecheckerboard="0"
   inkscape:deskcolor="#d1d1d1"
   inkscape:zoom="1.11375"
   inkscape:cx="399.55107"
   inkscape:cy="400"
   inkscape:window-width="1920"
   inkscape:window-height="1142"
   inkscape:window-x="1920"
   inkscape:window-y="0"
   inkscape:window-maximized="1"
   inkscape:current-layer="g4" />
<g
   id="g4">
	<path
   d="m 507.371,313.695 c -14.863,-20.699 -29.988,-21.262 -67.61,-1.478 l -74.497,45.516 c -8.46,4.479 -26.252,6.995 -51.085,7.598 -1.165,0.028 -2.319,0.053 -3.473,0.073 3.862,-8.003 2,-17.805 -5.172,-28.512 -13.406,-20.018 -36.595,-31.851 -61.319,-31.851 h -33.289 c -18.073,0 -35.266,-5.456 -48.896,-15.731 -13.108,-9.881 -29.98,-11.634 -49.287,-7.115 -12.533,2.934 -25.684,8.407 -39.018,15.678 -4.876,2.659 -9.549,5.448 -13.991,8.275 v -9.402 c 0,-4.713 -3.82,-8.533 -8.533,-8.533 H 8.533 C 3.82,288.213 0,292.033 0,296.746 v 204.8 c 0,4.713 3.821,8.533 8.533,8.533 H 51.2 c 4.713,0 8.533,-3.82 8.533,-8.533 V 484.48 h 110.932 c 17.463,0 34.915,-1.32 52.192,-3.945 l 110.612,-16.82 c 3.997,-0.047 7.969,-0.511 11.915,-1.367 10.283,-1.479 19.987,-6.495 28.008,-14.058 L 502.734,347.564 c 10.263,-8.508 12.246,-23.26 4.637,-33.869 z M 17.067,493.013 V 305.28 h 25.6 v 17.052 c 0,0.005 -0.001,0.01 -0.001,0.015 v 153.6 c 0,0.006 0.001,0.011 0.001,0.017 v 17.05 h -25.6 z m 475.06,-158.821 -129.55,100.888 -0.657,0.568 c -5.649,5.407 -12.308,8.872 -19.084,9.823 -3.915,0.831 -6.976,1.18 -10.036,1.18 l -1.283,0.097 -111.224,16.913 c -16.428,2.497 -33.023,3.752 -49.627,3.752 H 59.733 V 326.674 c 1.061,-0.75 2.304,-1.612 3.714,-2.567 5.67,-3.836 11.891,-7.675 18.448,-11.251 12.095,-6.596 23.895,-11.507 34.737,-14.044 14.829,-3.471 26.679,-2.24 35.124,4.126 16.669,12.566 37.479,19.17 59.17,19.17 h 33.289 c 19.145,0 36.969,9.095 47.139,24.281 4.665,6.964 5.013,10.42 3.504,12.341 -1.733,2.206 -6.429,4.199 -13.155,5.337 -5.904,0.999 -12.295,1.233 -17.809,1.023 -0.025,-10e-4 -0.051,0.037 -0.078,0.092 -0.546,-0.11 -1.111,-0.169 -1.689,-0.169 H 179.2 c -25.5,0 -42.667,11.236 -42.667,34.133 0,4.713 3.82,8.533 8.533,8.533 4.713,0 8.533,-3.82 8.533,-8.533 0,-11.578 8.386,-17.067 25.6,-17.067 h 82.927 c 3.725,0 5.11,0.021 16.934,0.234 15.472,0.278 25.05,0.332 35.533,0.078 27.462,-0.667 47.079,-3.441 59.126,-9.843 l 74.464,-45.498 c 30.487,-16.011 36.429,-15.79 45.322,-3.405 2.339,3.263 1.742,7.888 -1.378,10.547 z"
   id="path1" />
<path
   d="M 225.34053,119.7015 265.8012,64.958811 c 26.1533,-35.385749 39.2304,-53.078493 51.43147,-49.339684 12.19975,3.738939 12.19975,25.439114 12.19975,68.839597 v 4.092129 c 0,15.653547 0,23.480387 5.00252,28.389757 l 0.26426,0.25435 c 5.10955,4.80618 13.25549,4.80618 29.54737,4.80618 29.31878,0 43.97882,0 48.93245,8.89115 0.0819,0.14667 0.16121,0.29598 0.23916,0.44529 4.67747,9.02991 -3.81069,20.5135 -20.78701,43.48069 l -40.46015,54.7423 c -26.15421,35.38496 -39.23132,53.07876 -51.43239,49.33942 -12.19976,-3.73933 -12.19976,-25.43937 -12.19976,-68.84079 l 0.001,-4.08948 c 0,-15.65501 0,-23.48118 -5.00251,-28.39121 l -0.26427,-0.2537 c -5.10954,-4.80564 -13.25561,-4.80564 -29.54802,-4.80564 -29.31837,0 -43.97751,0 -48.9318,-8.89249 -0.082,-0.14666 -0.16185,-0.29465 -0.23928,-0.44527 -4.67682,-9.02859 3.81081,-20.51219 20.78622,-43.47991 z"
   stroke="#1C274C"
   stroke-width="19.8198"
   id="path1-3"
   style="fill:none;fill-opacity:1;stroke:#000000;stroke-opacity:1" /></g>
</svg>
