<?xml version="1.0" encoding="UTF-8" standalone="no"?>
<!-- Uploaded to: SVG Repo, www.svgrepo.com, Generator: SVG Repo Mixer Tools -->

<svg
   fill="#000000"
   width="800px"
   height="800px"
   viewBox="0 0 24 24"
   version="1.1"
   id="svg1"
   sodipodi:docname="BatteryGrid.svg"
   inkscape:version="1.4.2 (1:1.4.2+202505120737+ebf0e940d0)"
   xmlns:inkscape="http://www.inkscape.org/namespaces/inkscape"
   xmlns:sodipodi="http://sodipodi.sourceforge.net/DTD/sodipodi-0.dtd"
   xmlns="http://www.w3.org/2000/svg"
   xmlns:svg="http://www.w3.org/2000/svg">
  <defs
     id="defs1" />
  <sodipodi:namedview
     id="namedview1"
     pagecolor="#ffffff"
     bordercolor="#000000"
     borderopacity="0.25"
     inkscape:showpageshadow="2"
     inkscape:pageopacity="0.0"
     inkscape:pagecheckerboard="0"
     inkscape:deskcolor="#d1d1d1"
     inkscape:zoom="1.11375"
     inkscape:cx="399.55107"
     inkscape:cy="400"
     inkscape:window-width="1920"
     inkscape:window-height="1142"
     inkscape:window-x="1920"
     inkscape:window-y="0"
     inkscape:window-maximized="1"
     inkscape:current-layer="svg1" />
  <path
     fill-rule="evenodd"
     clip-rule="evenodd"
     d="m 10.055556,4.3905724 c 0,-0.136715 0,-0.20507 -0.02661,-0.2572896 C 10.005562,4.0873515 9.9682138,4.0500079 9.9222727,4.0266077 9.8700337,4 9.8016835,4 9.6649832,4 H 8.493266 C 8.3565657,4 8.2882155,4 8.2359764,4.026608 c -0.045941,0.0234 -0.083289,0.060744 -0.1066751,0.1066751 -0.026608,0.05222 -0.026608,0.1205746 -0.026608,0.2572896 V 4.976431 H 5.6616162 V 4.3905724 c 0,-0.136715 0,-0.20507 -0.026608,-0.2572896 C 5.6116082,4.0873515 5.5742646,4.0500079 5.5283333,4.0266077 5.4761138,4 5.4077588,4 5.2710438,4 H 4.0993266 C 3.9626116,4 3.8942566,4 3.842037,4.026608 3.796106,4.050008 3.758762,4.087352 3.735362,4.1332831 3.708754,4.1855031 3.708754,4.2538577 3.708754,4.3905727 V 4.976431 H 2.976431 C 2.4345118,4.976431 2,5.4109428 2,5.952862 v 4.882155 c 0,0.541919 0.4345118,0.976431 0.976431,0.976431 h 7.811448 c 0.541919,0 0.976431,-0.434512 0.976431,-0.976431 l -0.0049,-4.882155 c 0,-0.5419192 -0.42963,-0.976431 -0.971549,-0.976431 H 10.055556 Z M 2.976431,10.835017 V 5.952862 l 7.806566,9.764e-4 0.0049,4.8811786 z"
     id="path1"
     style="stroke-width:0.488215" />
  <g
     id="g2"
     transform="matrix(0.02362164,0,0,0.02362164,10.849135,10.263906)">
	<g
   id="g1">
		<path
   d="m 453.785,116.364 h -23.273 c -6.982,0 -11.636,4.655 -11.636,11.636 0,6.981 4.655,11.636 11.636,11.636 h 23.273 c 6.982,0 11.636,-4.655 11.636,-11.636 0,-6.981 -4.654,-11.636 -11.636,-11.636 z"
   id="path1-5" />

	</g>

</g>
  <g
     id="g4"
     transform="matrix(0.02362164,0,0,0.02362164,10.849135,10.263906)">
	<g
   id="g3">
		<path
   d="m 453.785,162.909 h -23.273 c -6.982,0 -11.636,4.655 -11.636,11.636 0,6.981 4.655,11.636 11.636,11.636 h 23.273 c 6.982,0 11.636,-4.655 11.636,-11.636 0,-6.981 -4.654,-11.636 -11.636,-11.636 z"
   id="path2" />

	</g>

</g>
  <g
     id="g6"
     transform="matrix(0.02362164,0,0,0.02362164,10.849135,10.263906)">
	<g
   id="g5">
		<path
   d="M 81.422,116.364 H 58.149 c -6.982,0 -11.636,4.655 -11.636,11.636 0,6.981 4.655,11.636 11.636,11.636 h 23.273 c 6.982,0 11.636,-4.655 11.636,-11.636 0,-6.981 -4.654,-11.636 -11.636,-11.636 z"
   id="path4" />

	</g>

</g>
  <g
     id="g8"
     transform="matrix(0.02362164,0,0,0.02362164,10.849135,10.263906)">
	<g
   id="g7">
		<path
   d="M 81.422,162.909 H 58.149 c -6.982,0 -11.636,4.655 -11.636,11.636 0,6.981 4.655,11.636 11.636,11.636 h 23.273 c 6.982,0 11.636,-4.655 11.636,-11.636 0,-6.981 -4.654,-11.636 -11.636,-11.636 z"
   id="path6" />

	</g>

</g>
  <g
     id="g10"
     transform="matrix(0.02362164,0,0,0.02362164,10.849135,10.263906)">
	<g
   id="g9">
		<path
   d="M 458.44,70.982 307.167,1.164 C 306.004,0 303.676,0 302.513,0 h -93.091 c -1.164,0 -3.491,0 -4.655,1.164 L 53.495,70.982 c -4.655,2.327 -8.145,8.145 -6.982,12.8 1.164,5.818 5.818,9.309 11.636,9.309 h 125.673 l -55.855,315.345 c -1.164,5.818 3.491,12.8 9.309,13.964 1.164,0 1.164,0 2.327,0 5.818,0 10.473,-3.491 11.636,-9.309 l 13.964,-82.618 164.073,121.018 c 2.327,1.164 4.655,2.327 6.982,2.327 3.491,0 6.982,-1.164 9.309,-4.655 3.491,-4.655 2.327,-12.8 -2.327,-16.291 l -67.491,-50.036 70.982,-52.364 23.273,134.982 H 162.876 l 66.327,-48.873 c 4.655,-3.491 5.818,-11.636 2.327,-16.291 -3.491,-4.655 -11.636,-5.818 -16.291,-2.327 l -90.764,67.491 H 93.058 c -3.491,0 -5.818,1.164 -8.146,3.491 L 61.64,492.218 c -4.655,4.655 -4.655,11.636 0,16.291 4.655,4.655 11.636,4.655 16.291,0 l 19.782,-19.782 h 316.509 l 19.782,19.782 c 2.327,2.327 5.818,3.491 8.145,3.491 2.327,0 5.818,-1.164 8.145,-3.491 4.655,-4.655 4.655,-11.636 0,-16.291 l -23.273,-23.273 c -2.327,-2.327 -4.655,-3.491 -8.145,-3.491 h -25.6 L 328.113,93.091 h 125.673 c 5.818,0 10.473,-3.491 11.636,-9.309 1.163,-5.818 -1.164,-10.473 -6.982,-12.8 z M 342.076,303.709 255.967,368.873 182.658,314.182 228.04,281.6 c 4.655,-3.491 6.982,-10.473 2.327,-16.291 -3.491,-5.818 -10.473,-6.982 -16.291,-2.327 l -41.891,30.255 13.964,-81.455 121.018,86.109 c 2.327,1.164 4.655,2.327 6.982,2.327 3.491,0 6.982,-1.164 9.309,-4.655 3.491,-4.655 2.327,-12.8 -2.327,-16.291 l -45.382,-32.582 50.036,-36.073 z m -38.4,-138.473 -30.254,-24.436 33.745,-27.927 12.8,73.309 -65.164,46.545 -50.036,-36.073 23.273,-18.618 c 4.655,-3.491 5.818,-11.636 1.164,-16.291 -4.654,-4.655 -11.636,-5.818 -16.291,-1.164 l -22.109,17.455 11.636,-65.164 86.109,70.982 c 2.327,2.327 4.655,2.327 6.982,2.327 3.491,0 6.982,-1.164 9.309,-4.655 3.491,-4.653 3.491,-12.799 -1.164,-16.29 z m 22.109,-95.418 -2.327,-13.964 c -1.164,-5.818 -6.982,-10.473 -13.964,-9.309 -5.818,1.164 -10.473,6.982 -9.309,13.964 l 1.164,9.309 h -57.018 c -6.982,0 -11.636,4.655 -11.636,11.636 0,6.981 4.655,11.636 11.636,11.636 h 51.2 l -39.564,32.582 -47.709,-39.564 4.655,-26.764 c 1.164,-5.818 -3.491,-11.636 -9.309,-12.8 -5.818,-1.164 -12.8,3.491 -13.964,9.309 l -2.327,13.964 h -1.164 -74.473 L 212.912,23.272 h 88.436 l 101.236,46.545 h -76.799 z"
   id="path8" />

	</g>

</g>
</svg>
