<svg class="logo" viewBox="0 0 400 400" xmlns="http://www.w3.org/2000/svg" height="100%" width="100%"><path id="b" d="m98 47-63 1c-6 0-12 4-11 11v88c1 5 3 10 10 11l79-1c25-1 24-53 4-61 11-5 18-49-19-49zM48 72h52c1 10-2 18-11 19l-38 1v22l43-1c14 0 14 11 14 20H48Z"></path><use href="#b" x="246"></use><path d="m268 350 1-100c2-14 14-16 29-1l56 59v-69h25l-1 99c1 12-12 17-22 7l-63-64v69Zm-65-173c-112 90-67 155-34 173-4-11-7-23-6-38h60c0 29-4 31-8 40 57-35 42-86 15-112-21-21-32-40-27-63zm-10 81c13 10 18 20 24 30h-48c5-9 8-18 24-30zM21 239h25v86h77v25l-90-1s-11 1-11-12z M246 47v25h-68c-10 1-11 18 1 18l47 1c41 3 37 63 2 66l-82 1v-25h77c11 0 12-18 0-18h-48c-42-5-37-67 0-67z"></path></svg>
