<?xml version="1.0" encoding="iso-8859-1"?>
<!-- Uploaded to: SVG Repo, www.svgrepo.com, Generator: SVG Repo Mixer Tools -->
<svg fill="#000000" height="800px" width="800px" version="1.1" id="Layer_1" xmlns="http://www.w3.org/2000/svg" xmlns:xlink="http://www.w3.org/1999/xlink" 
	 viewBox="0 0 512 512" xml:space="preserve">
<g>
	<g>
		<path d="M453.785,116.364h-23.273c-6.982,0-11.636,4.655-11.636,11.636s4.655,11.636,11.636,11.636h23.273
			c6.982,0,11.636-4.655,11.636-11.636S460.767,116.364,453.785,116.364z"/>
	</g>
</g>
<g>
	<g>
		<path d="M453.785,162.909h-23.273c-6.982,0-11.636,4.655-11.636,11.636s4.655,11.636,11.636,11.636h23.273
			c6.982,0,11.636-4.655,11.636-11.636S460.767,162.909,453.785,162.909z"/>
	</g>
</g>
<g>
	<g>
		<path d="M81.422,116.364H58.149c-6.982,0-11.636,4.655-11.636,11.636s4.655,11.636,11.636,11.636h23.273
			c6.982,0,11.636-4.655,11.636-11.636S88.404,116.364,81.422,116.364z"/>
	</g>
</g>
<g>
	<g>
		<path d="M81.422,162.909H58.149c-6.982,0-11.636,4.655-11.636,11.636s4.655,11.636,11.636,11.636h23.273
			c6.982,0,11.636-4.655,11.636-11.636S88.404,162.909,81.422,162.909z"/>
	</g>
</g>
<g>
	<g>
		<path d="M458.44,70.982L307.167,1.164C306.004,0,303.676,0,302.513,0h-93.091c-1.164,0-3.491,0-4.655,1.164L53.495,70.982
			c-4.655,2.327-8.145,8.145-6.982,12.8c1.164,5.818,5.818,9.309,11.636,9.309h125.673l-55.855,315.345
			c-1.164,5.818,3.491,12.8,9.309,13.964c1.164,0,1.164,0,2.327,0c5.818,0,10.473-3.491,11.636-9.309l13.964-82.618l164.073,121.018
			c2.327,1.164,4.655,2.327,6.982,2.327c3.491,0,6.982-1.164,9.309-4.655c3.491-4.655,2.327-12.8-2.327-16.291l-67.491-50.036
			l70.982-52.364l23.273,134.982H162.876l66.327-48.873c4.655-3.491,5.818-11.636,2.327-16.291s-11.636-5.818-16.291-2.327
			l-90.764,67.491H93.058c-3.491,0-5.818,1.164-8.146,3.491L61.64,492.218c-4.655,4.655-4.655,11.636,0,16.291
			c4.655,4.655,11.636,4.655,16.291,0l19.782-19.782h316.509l19.782,19.782c2.327,2.327,5.818,3.491,8.145,3.491
			s5.818-1.164,8.145-3.491c4.655-4.655,4.655-11.636,0-16.291l-23.273-23.273c-2.327-2.327-4.655-3.491-8.145-3.491h-25.6
			L328.113,93.091h125.673c5.818,0,10.473-3.491,11.636-9.309C466.585,77.964,464.258,73.309,458.44,70.982z M342.076,303.709
			l-86.109,65.164l-73.309-54.691L228.04,281.6c4.655-3.491,6.982-10.473,2.327-16.291c-3.491-5.818-10.473-6.982-16.291-2.327
			l-41.891,30.255l13.964-81.455l121.018,86.109c2.327,1.164,4.655,2.327,6.982,2.327c3.491,0,6.982-1.164,9.309-4.655
			c3.491-4.655,2.327-12.8-2.327-16.291l-45.382-32.582l50.036-36.073L342.076,303.709z M303.676,165.236L273.422,140.8
			l33.745-27.927l12.8,73.309l-65.164,46.545l-50.036-36.073l23.273-18.618c4.655-3.491,5.818-11.636,1.164-16.291
			s-11.636-5.818-16.291-1.164l-22.109,17.455l11.636-65.164l86.109,70.982c2.327,2.327,4.655,2.327,6.982,2.327
			c3.491,0,6.982-1.164,9.309-4.655C308.331,176.873,308.331,168.727,303.676,165.236z M325.785,69.818l-2.327-13.964
			c-1.164-5.818-6.982-10.473-13.964-9.309c-5.818,1.164-10.473,6.982-9.309,13.964l1.164,9.309h-57.018
			c-6.982,0-11.636,4.655-11.636,11.636s4.655,11.636,11.636,11.636h51.2l-39.564,32.582l-47.709-39.564l4.655-26.764
			c1.164-5.818-3.491-11.636-9.309-12.8s-12.8,3.491-13.964,9.309l-2.327,13.964h-1.164h-74.473l101.236-46.545h88.436
			l101.236,46.545H325.785z"/>
	</g>
</g>
</svg>