<?xml version="1.0" encoding="UTF-8" standalone="no"?>
<!-- Uploaded to: SVG Repo, www.svgrepo.com, Generator: SVG Repo Mixer Tools -->

<svg
   width="800px"
   height="800px"
   viewBox="0 0 24 24"
   fill="none"
   version="1.1"
   id="svg40"
   sodipodi:docname="graph-mag.svg"
   inkscape:version="1.2.2 (b0a8486541, 2022-12-01)"
   xmlns:inkscape="http://www.inkscape.org/namespaces/inkscape"
   xmlns:sodipodi="http://sodipodi.sourceforge.net/DTD/sodipodi-0.dtd"
   xmlns="http://www.w3.org/2000/svg"
   xmlns:svg="http://www.w3.org/2000/svg">
  <defs
     id="defs44" />
  <sodipodi:namedview
     id="namedview42"
     pagecolor="#ffffff"
     bordercolor="#000000"
     borderopacity="0.25"
     inkscape:showpageshadow="2"
     inkscape:pageopacity="0.0"
     inkscape:pagecheckerboard="0"
     inkscape:deskcolor="#d1d1d1"
     showgrid="false"
     inkscape:zoom="0.295"
     inkscape:cx="400"
     inkscape:cy="401.69492"
     inkscape:window-width="1920"
     inkscape:window-height="1016"
     inkscape:window-x="0"
     inkscape:window-y="60"
     inkscape:window-maximized="1"
     inkscape:current-layer="svg40" />
  <path
     d="M 1.9661017,6.5254237 V 20.525424 c 0,0.5523 0.44772,1 1,1 H 16.966102"
     stroke="#000000"
     stroke-width="2"
     stroke-linecap="round"
     stroke-linejoin="round"
     id="path36" />
  <path
     d="m 15.966102,10.525424 -5,4.9999 -2.5000003,-2.5001 -3.5,3.5"
     stroke="#000000"
     stroke-width="2"
     stroke-linecap="round"
     stroke-linejoin="round"
     id="path38" />
  <g
     id="g223"
     transform="matrix(0.022849,0,0,0.022849,11.393907,0.80981816)">
	<path
   class="st0"
   d="m 312.069,53.445 c -71.26,-71.26 -187.194,-71.26 -258.454,0 -71.261,71.26 -71.261,187.206 0,258.466 71.26,71.26 187.194,71.26 258.454,0 71.26,-71.26 71.26,-187.206 0,-258.466 z m -25.375,233.091 c -57.351,57.34 -150.353,57.34 -207.704,-0.011 -57.351,-57.351 -57.351,-150.353 0,-207.693 57.351,-57.351 150.342,-57.351 207.693,0 57.351,57.351 57.362,150.342 0.011,207.704 z"
   id="path217"
   style="fill:#000000" />

	<path
   class="st0"
   d="m 101.911,112.531 c -29.357,37.725 -31.801,89.631 -7.321,129.702 1.877,3.087 5.902,4.048 8.978,2.182 3.065,-1.888 4.037,-5.903 2.16,-8.978 -21.666,-35.456 -19.506,-81.538 6.469,-114.876 2.226,-2.837 1.713,-6.938 -1.135,-9.154 -2.835,-2.214 -6.937,-1.712 -9.151,1.124 z"
   id="path219"
   style="fill:#000000" />

	<path
   class="st0"
   d="m 498.544,447.722 -132.637,-129.2 c -7.255,-7.07 -18.84,-6.982 -26.008,0.174 l -21.033,21.033 c -7.156,7.156 -7.234,18.742 -0.153,25.986 l 129.19,132.636 c 14.346,17.324 35.542,18.35 51.917,1.964 16.396,-16.364 16.037,-38.247 -1.276,-52.593 z"
   id="path221"
   style="fill:#000000" />

</g>
</svg>
