<?xml version="1.0" encoding="iso-8859-1"?>
<!-- Uploaded to: SVG Repo, www.svgrepo.com, Generator: SVG Repo Mixer Tools -->
<svg fill="#000000" height="800px" width="800px" version="1.1" id="Layer_1" xmlns="http://www.w3.org/2000/svg" xmlns:xlink="http://www.w3.org/1999/xlink" 
	 viewBox="0 0 512 512" xml:space="preserve">
<g>
	<g>
		<g>
			<path d="M160,0H96C84.218,0,74.667,9.551,74.667,21.333v21.333H32c-11.782,0-21.333,9.551-21.333,21.333v64
				c0,11.782,9.551,21.333,21.333,21.333h42.667v213.333H32c-11.782,0-21.333,9.551-21.333,21.333v64
				c0,11.782,9.551,21.333,21.333,21.333h42.667v21.333C74.667,502.449,84.218,512,96,512h64c11.782,0,21.333-9.551,21.333-21.333
				V21.333C181.333,9.551,171.782,0,160,0z M53.333,106.667V85.333h21.333v21.333H53.333z M53.333,426.667v-21.333h21.333v21.333
				H53.333z M138.667,469.333h-21.333V448v-64V128V64V42.667h21.333V469.333z"/>
			<path d="M288,0h-64c-11.782,0-21.333,9.551-21.333,21.333v469.333c0,11.782,9.551,21.333,21.333,21.333h64
				c11.782,0,21.333-9.551,21.333-21.333V21.333C309.333,9.551,299.782,0,288,0z M266.667,469.333h-21.333V42.667h21.333V469.333z"
				/>
			<path d="M480,149.333c11.782,0,21.333-9.551,21.333-21.333V64c0-11.782-9.551-21.333-21.333-21.333h-42.667V21.333
				C437.333,9.551,427.782,0,416,0h-64c-11.782,0-21.333,9.551-21.333,21.333v469.333c0,11.782,9.551,21.333,21.333,21.333h64
				c11.782,0,21.333-9.551,21.333-21.333v-21.333H480c11.782,0,21.333-9.551,21.333-21.333v-64c0-11.782-9.551-21.333-21.333-21.333
				h-42.667V149.333H480z M458.667,85.333v21.333h-21.333V85.333H458.667z M394.667,469.333h-21.333V42.667h21.333V64v64v256v64
				V469.333z M458.667,405.333v21.333h-21.333v-21.333H458.667z"/>
		</g>
	</g>
</g>
</svg>