<?xml version="1.0" encoding="iso-8859-1"?>
<!-- Uploaded to: SVG Repo, www.svgrepo.com, Generator: SVG Repo Mixer Tools -->
<svg fill="#000000" height="800px" width="800px" version="1.1" id="Layer_1" xmlns="http://www.w3.org/2000/svg" xmlns:xlink="http://www.w3.org/1999/xlink" 
	 viewBox="0 0 512 512" xml:space="preserve">
<g>
	<g>
		<g>
			<path d="M477.884,145.067H34.116C15.275,145.067,0,160.345,0,179.183v153.634c0,18.838,15.275,34.116,34.116,34.116h443.767
				c18.842,0,34.116-15.278,34.116-34.116V179.183C512,160.345,496.725,145.067,477.884,145.067z M494.933,332.817
				c0,9.413-7.635,17.05-17.05,17.05H34.116c-9.415,0-17.05-7.636-17.05-17.05V179.183c0-9.413,7.635-17.05,17.05-17.05h443.767
				c9.415,0,17.05,7.636,17.05,17.05V332.817z"/>
			<path d="M392.533,238.934c0-4.713-3.82-8.533-8.533-8.533s-8.533,3.82-8.533,8.533v8.533c0,4.713,3.82,8.533,8.533,8.533
				s8.533-3.82,8.533-8.533V238.934z"/>
			<path d="M435.2,230.401c-4.713,0-8.533,3.82-8.533,8.533v8.533c0,4.713,3.82,8.533,8.533,8.533s8.533-3.82,8.533-8.533v-8.533
				C443.733,234.221,439.913,230.401,435.2,230.401z"/>
			<path d="M409.6,264.534c-9.421,0-17.067,7.646-17.067,17.067h34.133C426.667,272.18,419.021,264.534,409.6,264.534z"/>
			<path d="M459.508,204.801h-99.814c-3.278,0-6.266,1.878-7.688,4.831c-14.225,29.544-14.225,63.194,0,92.737
				c1.422,2.954,4.41,4.831,7.688,4.831h99.814c3.278,0,6.266-1.878,7.689-4.831c14.225-29.544,14.225-63.194,0-92.737
				C465.774,206.679,462.786,204.801,459.508,204.801z M453.979,290.134h-88.755c-9.094-22.02-9.094-46.247,0-68.267h88.755
				C463.072,243.887,463.072,268.115,453.979,290.134z"/>
			<path d="M238.933,238.934c0-4.713-3.82-8.533-8.533-8.533s-8.533,3.82-8.533,8.533v8.533c0,4.713,3.82,8.533,8.533,8.533
				s8.533-3.82,8.533-8.533V238.934z"/>
			<path d="M281.6,230.401c-4.713,0-8.533,3.82-8.533,8.533v8.533c0,4.713,3.82,8.533,8.533,8.533s8.533-3.82,8.533-8.533v-8.533
				C290.133,234.221,286.313,230.401,281.6,230.401z"/>
			<path d="M256,264.534c-9.421,0-17.067,7.646-17.067,17.067h34.133C273.067,272.18,265.421,264.534,256,264.534z"/>
			<path d="M305.908,204.801h-99.814c-3.278,0-6.266,1.878-7.689,4.831c-14.225,29.544-14.225,63.194,0,92.737
				c1.422,2.954,4.41,4.831,7.689,4.831h99.814c3.278,0,6.266-1.878,7.689-4.831c14.225-29.544,14.225-63.194,0-92.737
				C312.174,206.679,309.186,204.801,305.908,204.801z M300.379,290.134h-88.755c-9.094-22.02-9.094-46.247,0-68.267h88.755
				C309.472,243.887,309.472,268.115,300.379,290.134z"/>
			<path d="M85.333,238.934c0-4.713-3.82-8.533-8.533-8.533s-8.533,3.82-8.533,8.533v8.533c0,4.713,3.82,8.533,8.533,8.533
				s8.533-3.82,8.533-8.533V238.934z"/>
			<path d="M128,230.401c-4.713,0-8.533,3.82-8.533,8.533v8.533c0,4.713,3.82,8.533,8.533,8.533s8.533-3.82,8.533-8.533v-8.533
				C136.533,234.221,132.713,230.401,128,230.401z"/>
			<path d="M102.4,264.534c-9.421,0-17.067,7.646-17.067,17.067h34.133C119.467,272.18,111.821,264.534,102.4,264.534z"/>
			<path d="M152.308,204.801H52.494c-3.278,0-6.266,1.878-7.689,4.831c-14.225,29.544-14.225,63.194,0,92.737
				c1.422,2.954,4.41,4.831,7.689,4.831h99.814c3.278,0,6.266-1.878,7.689-4.831c14.225-29.544,14.225-63.194,0-92.737
				C158.574,206.679,155.586,204.801,152.308,204.801z M146.779,290.134H58.023c-9.094-22.02-9.094-46.247,0-68.267h88.755
				C155.872,243.887,155.872,268.115,146.779,290.134z"/>
		</g>
	</g>
</g>
</svg>