<?xml version="1.0" encoding="iso-8859-1"?>
<!-- Uploaded to: SVG Repo, www.svgrepo.com, Generator: SVG Repo Mixer Tools -->
<!DOCTYPE svg PUBLIC "-//W3C//DTD SVG 1.1//EN" "http://www.w3.org/Graphics/SVG/1.1/DTD/svg11.dtd">
<svg fill="#000000" version="1.1" id="Capa_1" xmlns="http://www.w3.org/2000/svg" xmlns:xlink="http://www.w3.org/1999/xlink" 
	 width="800px" height="800px" viewBox="0 0 583.536 583.536"
	 xml:space="preserve">
<g>
	<path d="M582.854,403.206c-1.307-2.212-4.126-3.024-6.408-1.853c-12.643,6.454-26.761,9.03-41.042,10.491
		c-8.079-6.734-16.792-13.353-26.154-19.956c0.84-5.428,2.081-10.608,3.93-15.388c0.929-2.427-0.196-5.157-2.576-6.207
		c-2.39-1.064-5.172-0.057-6.329,2.277c-1.764,3.528-4.732,6.902-8.4,10.207c-1.647-1.083-3.211-2.161-4.9-3.248l-14.991-10.398
		l-55.641-129.913c-1.125-2.623-3.71-4.324-6.58-4.324L82.016,198.86c-0.038,0-0.065,0.009-0.093,0.009
		c-0.532,0.009-1.073,0.077-1.596,0.206c-0.14,0.032-0.28,0.096-0.411,0.133c-0.383,0.117-0.747,0.259-1.111,0.441
		c-0.177,0.086-0.332,0.187-0.5,0.287c-0.149,0.096-0.308,0.156-0.462,0.261l-12.26,8.76c-2.39,1.704-3.342,4.646-2.707,7.418
		c-7.813-0.633-17.166-1.09-26.754-0.329c-21.179,1.657-32.817,7.799-35.58,18.775c-8.427,33.393,84.129,93.389,85.067,93.99
		c10.608,6.823,21.431,13.488,32.497,20.013l50.376,120.331c1.144,2.581,3.71,4.243,6.539,4.243h19.392h2.908h121.633l7.001,23.666
		l-52.626,35.083c-1.857,1.246-2.614,3.598-1.82,5.685c0.719,1.866,2.511,3.07,4.462,3.07c0.229,0,0.462-0.014,0.686-0.047
		l104.916-14.985l17.297-3.557c0.672-0.648,1.399-1.251,2.044-1.923c0.784-0.826,1.614-1.647,2.482-2.497
		c1.326-1.307,2.754-2.697,4.145-4.331l1.857-2.076c0.374-0.416,0.766-0.901,1.139-1.321l-25.146,5.176v-8.909l27.274,1.293
		c0.578-0.682,1.147-1.288,1.727-1.998c-1.862-2.608-3.528-5.181-5.073-7.729l-23.933-1.134v-23.457h13.833
		c-0.383-1.867-0.598-3.71-0.803-5.554c2.441,0.714,4.858,1.461,7.309,2.161c0.616,12.834,6.776,26.546,18.79,41.616
		c-1.293,1.693-2.576,3.322-3.897,4.863c-2.613,3.332-5.33,6.234-7.784,9.007c-2.418,2.838-4.9,5.045-7.001,7.239
		c-2.077,2.175-4.056,3.999-5.74,5.428c-3.305,2.936-5.134,4.69-5.134,4.69l9.959,3.435l21.021-24.866
		c1.563-1.55,3.184-3.136,4.836-4.761c0.476-0.508,0.942-1.078,1.409-1.605c9.119,1.602,17.445,2.455,24.717,2.455
		c5.208,0,9.922-0.448,14.281-1.251l0.009,0.005c7.458,2.763,14.188,4.009,20.302,4.009c19.005,0,31.993-12.097,42.303-28.235
		c22.995-0.247,36.459-6.31,41.023-18.58c4.023-10.809-0.401-23.093-13.292-37.443c5.867-11.402,12.125-20.979,19.892-26.28
		C583.531,408.265,584.166,405.418,582.854,403.206z M521.673,413.025c-1.195,0.089-2.39,0.173-3.575,0.257
		c-3.505,0.252-6.991,0.509-10.454,0.789c0.037-3.827,0.168-7.604,0.42-11.313C512.792,406.17,517.324,409.591,521.673,413.025z
		 M467.657,386.129c2.939-1.727,5.787-3.463,8.568-5.194l9.437,6.543c0.817,0.527,1.559,1.041,2.361,1.563
		c-7.028,4.985-15.429,9.866-24.091,14.894c-24.806,14.384-52.92,30.681-57.652,56.261c-6.497-1.89-12.975-3.799-19.401-5.764
		c-13.553-4.145-26.92-8.456-40.108-12.918l-5.965-14.113l6.646-8.425l56.938,2.072l7.668,5.008
		c2.978-3.528,6.272-6.869,9.862-10.006l-9.344-6.487l-10.604-25.104l5.67-7.191l57.457,2.889L467.657,386.129z M369.685,459.057
		h-15.504l-2.465-5.833C357.676,455.197,363.655,457.144,369.685,459.057z M154.654,358.514l-18.901-44.851l60.327,3.906
		l11.08,7.229l13.506,31.896l-5.67,6.086l-57.886-2.913C156.278,359.419,155.476,358.962,154.654,358.514z M382.799,371.231
		l-58.712-2.959l-11.724-8.144l-11.901-28.151l5.741-7.276l59.122,3.831l10.791,7.043l12.451,29.468L382.799,371.231z
		 M396.498,383.791l10.939,25.893l-6.034,6.479l-59.197-2.151l-10.007-6.949l-11.294-26.729l5.638-7.15l58.193,2.931
		L396.498,383.791z M307.487,360.871l-5.848,6.277l-66.25-3.337l-9.246-6.418l-13.24-31.288l5.582-7.084l64.644,4.187l11.654,7.607
		L307.487,360.871z M362.143,323.529l-59.3-3.841l-10.721-7.453L279.82,283.12l4.915-6.235l61.199,4.788l10.249,6.681l12.078,28.609
		L362.143,323.529z M287.05,312.539l-5.386,5.787l-65.899-4.275l-11.294-7.85l-12.662-29.914l4.966-6.284l68.219,5.337l8.755,5.71
		L287.05,312.539z M199.477,306.658l-5.572,5.979l-60.224-3.897l-19.042-45.161l59.907,4.684l11.985,7.829L199.477,306.658z
		 M216.087,367.619l12.732,8.312l10.066,23.793c-24.754-10.897-48.691-22.431-71.761-34.569L216.087,367.619z M245.261,402.538
		l-11.201-26.452l5.731-7.271l65.087,3.28l10.146,6.623l12.358,29.221l-4.993,5.357l-56.589-2.062
		C258.893,408.382,252.046,405.479,245.261,402.538z M323.294,418.108l11.574,7.556l5.824,13.768
		c-21.104-7.253-41.719-14.897-61.853-22.938L323.294,418.108z M463.012,375.273l-59.024-2.973l-10.127-7.048l-12.2-28.861
		l5.115-6.473l58.432,3.785L463.012,375.273z M443.103,328.771l-58.124-3.762l-11.5-7.99l-11.499-27.232l5.096-6.461l58.535,4.583
		L443.103,328.771z M409.052,249.232l14.435,33.722l-57.484-4.499l-12.484-8.679l-11.724-27.743L409.052,249.232z M336.367,241.461
		l12.2,28.871l-5.872,6.293l-57.703-4.511l-13.917-9.668l-12.377-29.293L336.367,241.461z M253.25,232.573l13.133,31.064
		l-6.09,6.541l-65.628-5.136l-10.8-7.5L169.5,223.617L253.25,232.573z M164.063,223.033l14.347,33.869l-5.96,6.403l-59.897-4.693
		l-18.136-43.03L164.063,223.033z M90.78,320.776c-27.508-17.698-86.089-63.33-80.976-83.63c2.007-7.983,15.824-10.701,27.06-11.581
		c8.314-0.661,17.39-0.443,29.41,0.679l0.098-0.98l45.476,108.64C104.749,329.583,97.688,325.224,90.78,320.776z M160.544,372.492
		c24.334,12.867,49.621,25.066,75.821,36.562l-0.999,1.078l-59.879-2.18L160.544,372.492z M197.031,459.057l-19.49-46.251
		l59.738,2.171l11.145,7.267l15.588,36.809h-66.982V459.057z M269.193,459.057l-14.953-35.329l4.135-5.251
		c28.133,11.7,57.251,22.626,87.302,32.749l3.314,7.831H269.193z M296.15,528.419l35.833-23.886l31.652,14.248L296.15,528.419z
		 M375.827,513.792l-19.41-8.746l19.41,0.92V513.792z M375.827,496.398l-40.669-1.928l-6.239-21.076h46.903v23.004H375.827z
		 M439.58,506.354c1.693-2.147,3.359-4.351,5.04-6.591c2.8-4.158,5.787-8.312,8.415-12.666c2.669-4.331,5.101-8.783,7.519-13.147
		c2.398-4.368,4.499-8.812,6.543-13.062c4.084-8.546,7.444-16.666,10.226-23.672c2.81-6.978,5.003-12.857,6.562-16.983
		c1.586-4.088,2.427-6.496,2.427-6.496c0.009,0-6.356,7.967-14.006,21.002c-3.907,6.444-8.205,14.09-12.825,22.196
		c-2.315,4.037-4.705,8.204-7.141,12.442c-2.455,4.21-4.938,8.484-7.599,12.634c-2.454,4.279-5.236,8.326-7.85,12.414
		c-2.235,3.02-4.233,6.138-6.348,9.092c-12.068-15.756-16.923-29.375-14.691-41.514c3.911-21.184,28.843-35.647,52.962-49.63
		c10.09-5.843,19.779-11.542,27.792-17.627c0.766,0.513,1.531,1.035,2.282,1.544c-1.372,12.793-1.036,26.327-0.625,39.624
		c0.784,25.379,1.508,49.345-10.627,61.862C478.754,506.932,462.961,509.699,439.58,506.354z M487.623,510.203
		c2.585-1.61,4.919-3.486,7.014-5.646c10.272-10.6,13.143-26.117,13.661-43.685c0.196-0.121,0.42-0.177,0.606-0.331l0.089-0.074
		l33.444-28.213L508.353,449.9c-0.056-4.682-0.205-9.46-0.35-14.291c-0.112-3.911-0.225-7.85-0.304-11.766
		c3.683-0.312,7.365-0.579,11.08-0.845c14.053-0.994,28.44-2.012,42.283-5.591c-6.795,10.043-12.433,22.551-18.285,35.507
		C528.963,483.545,515.83,512.695,487.623,510.203z M565.852,470.108c-2.661,7.159-11.458,11.243-26.369,12.177
		c4.396-8.177,8.354-16.896,12.181-25.361c1.783-3.953,3.547-7.831,5.32-11.626C565.254,455.313,568.26,463.645,565.852,470.108z
		 M466.868,167.915c-28.105,0-50.974-22.869-50.974-50.974c0-28.11,22.868-50.979,50.974-50.979s50.974,22.869,50.974,50.979
		C517.841,145.046,494.973,167.915,466.868,167.915z M466.868,75.521c-22.836,0-41.416,18.582-41.416,41.42
		c0,22.836,18.58,41.416,41.416,41.416s41.416-18.58,41.416-41.416C508.284,94.103,489.704,75.521,466.868,75.521z M332.712,207.529
		c-0.779,0-1.54-0.383-2.002-1.09c-0.714-1.104-0.406-2.585,0.7-3.302l77.786-50.654c1.097-0.712,2.585-0.406,3.304,0.698
		c0.719,1.104,0.406,2.585-0.695,3.302l-77.791,50.659C333.613,207.406,333.166,207.529,332.712,207.529z M411.446,78.854
		c-0.499,0-1.003-0.159-1.433-0.479l-10.996-8.235c-1.055-0.793-1.269-2.29-0.48-3.347c0.799-1.055,2.297-1.26,3.347-0.48
		l10.991,8.232c1.055,0.789,1.27,2.29,0.48,3.347C412.888,78.522,412.169,78.854,411.446,78.854z M444.918,55.145
		c-1.022,0-1.965-0.66-2.287-1.689l-4.046-13.122c-0.393-1.262,0.317-2.6,1.577-2.987c1.256-0.383,2.6,0.315,2.987,1.575
		l4.046,13.124c0.392,1.263-0.312,2.6-1.577,2.987C445.39,55.109,445.152,55.145,444.918,55.145z M485.937,55.635
		c-0.256,0-0.518-0.042-0.774-0.124c-1.246-0.429-1.913-1.787-1.489-3.033l4.448-13c0.42-1.25,1.778-1.906,3.033-1.491
		c1.246,0.432,1.914,1.788,1.489,3.036l-4.448,12.998C487.865,55.014,486.931,55.635,485.937,55.635z M518.835,80.153
		c-0.746,0-1.488-0.35-1.955-1.015c-0.756-1.078-0.495-2.565,0.578-3.326l11.229-7.908c1.078-0.751,2.562-0.501,3.327,0.579
		c0.756,1.078,0.5,2.565-0.578,3.326l-11.225,7.908C519.792,80.008,519.312,80.153,518.835,80.153z M544.766,119.518
		c-0.01,0-0.023,0-0.038,0l-13.73-0.206c-1.311-0.019-2.37-1.104-2.352-2.422c0.019-1.312,1.092-2.357,2.39-2.357
		c0.009,0,0.022,0,0.042,0l13.726,0.205c1.316,0.023,2.371,1.104,2.353,2.427C547.136,118.472,546.068,119.518,544.766,119.518z
		 M528.884,166.41c-0.5,0-1.009-0.159-1.438-0.479l-10.991-8.232c-1.055-0.794-1.27-2.292-0.481-3.347
		c0.799-1.062,2.297-1.262,3.342-0.483l10.996,8.235c1.055,0.789,1.27,2.29,0.48,3.344
		C530.326,166.076,529.603,166.41,528.884,166.41z M530.06,361.655c-1.069,0-2.04-0.715-2.311-1.802l-45.644-179.771
		c-0.327-1.278,0.448-2.576,1.722-2.9c1.298-0.324,2.576,0.45,2.903,1.725l45.644,179.771c0.327,1.283-0.447,2.576-1.727,2.902
		C530.452,361.632,530.251,361.655,530.06,361.655z M392.848,301.515c-0.304,0-0.626-0.061-0.925-0.187
		c-1.213-0.504-1.787-1.908-1.278-3.122l50.549-120.135c0.509-1.218,1.909-1.788,3.132-1.281c1.213,0.511,1.787,1.911,1.274,3.132
		l-50.55,120.132C394.672,300.969,393.781,301.515,392.848,301.515z M128.406,134.366c-1.255,0-2.301-0.975-2.385-2.245
		c-0.08-1.316,0.919-2.453,2.24-2.53l269.892-16.654c1.4-0.068,2.45,0.922,2.535,2.235c0.079,1.316-0.92,2.453-2.236,2.534
		l-269.897,16.655C128.504,134.361,128.458,134.366,128.406,134.366z M411.451,78.854c-0.499,0-1.004-0.159-1.433-0.483
		l-10.996-8.24c-1.055-0.789-1.27-2.289-0.48-3.341c0.798-1.06,2.292-1.27,3.347-0.481l10.99,8.237
		c1.055,0.793,1.27,2.29,0.481,3.347C412.893,78.522,412.174,78.854,411.451,78.854z M444.923,55.145
		c-1.022,0-1.965-0.66-2.287-1.689l-4.051-13.122c-0.393-1.262,0.317-2.6,1.577-2.987c1.256-0.383,2.6,0.315,2.987,1.575
		l4.051,13.124c0.392,1.263-0.312,2.6-1.578,2.987C445.394,55.109,445.157,55.145,444.923,55.145z M485.942,55.644
		c-0.257,0-0.518-0.038-0.771-0.124c-1.25-0.43-1.918-1.788-1.498-3.034l4.443-13.005c0.43-1.246,1.807-1.911,3.033-1.491
		c1.251,0.432,1.919,1.788,1.499,3.036l-4.443,13.002C487.87,55.019,486.936,55.644,485.942,55.644z M518.826,80.158
		c-0.751,0-1.488-0.354-1.955-1.02c-0.756-1.078-0.494-2.565,0.579-3.326l11.238-7.903c1.083-0.756,2.566-0.502,3.327,0.579
		c0.756,1.078,0.5,2.564-0.578,3.325l-11.234,7.904C519.783,80.008,519.302,80.158,518.826,80.158z"/>
</g>
</svg>