<?xml version="1.0" encoding="UTF-8" standalone="no"?>
<!-- Uploaded to: SVG Repo, www.svgrepo.com, Generator: SVG Repo Mixer Tools -->

<svg
   width="800px"
   height="800px"
   viewBox="0 0 24 24"
   fill="none"
   version="1.1"
   id="svg62"
   sodipodi:docname="SunMoon.svg"
   inkscape:version="1.2.2 (b0a8486541, 2022-12-01)"
   xmlns:inkscape="http://www.inkscape.org/namespaces/inkscape"
   xmlns:sodipodi="http://sodipodi.sourceforge.net/DTD/sodipodi-0.dtd"
   xmlns="http://www.w3.org/2000/svg"
   xmlns:svg="http://www.w3.org/2000/svg">
  <defs
     id="defs66" />
  <sodipodi:namedview
     id="namedview64"
     pagecolor="#ffffff"
     bordercolor="#000000"
     borderopacity="0.25"
     inkscape:showpageshadow="2"
     inkscape:pageopacity="0.0"
     inkscape:pagecheckerboard="0"
     inkscape:deskcolor="#d1d1d1"
     showgrid="false"
     inkscape:zoom="0.295"
     inkscape:cx="400"
     inkscape:cy="401.69492"
     inkscape:window-width="1920"
     inkscape:window-height="1016"
     inkscape:window-x="0"
     inkscape:window-y="60"
     inkscape:window-maximized="1"
     inkscape:current-layer="svg62" />
  <path
     fill-rule="evenodd"
     clip-rule="evenodd"
     d="m 7.7288136,9.7923729 c 0.2496302,0 0.4520102,0.202374 0.4520102,0.4520101 v 1.205361 c 0,0.249636 -0.20238,0.45201 -0.4520102,0.45201 -0.2496302,0 -0.4520103,-0.202374 -0.4520103,-0.45201 v -1.205361 c 0,-0.2496361 0.2023801,-0.4520101 0.4520103,-0.4520101 z M 2.7076728,11.278637 c 0.1684491,-0.18424 0.4543607,-0.19704 0.6386001,-0.02859 l 1.3391617,1.224399 c 0.1842394,0.168449 0.1970403,0.454355 0.028591,0.638594 -0.1684491,0.184239 -0.4543607,0.19704 -0.6386,0.02859 L 2.7362639,11.917237 c -0.1842393,-0.168449 -0.1970403,-0.454361 -0.028591,-0.6386 z m 10.0423112,0 c 0.16845,0.184239 0.155613,0.470151 -0.02863,0.6386 l -1.339156,1.224393 c -0.184239,0.168449 -0.47015,0.155648 -0.6386,-0.02859 -0.168449,-0.184239 -0.155672,-0.470145 0.02857,-0.638594 l 1.339216,-1.224399 c 0.18424,-0.168449 0.470091,-0.155649 0.6386,0.02859 z m -5.0211704,2.431158 c -1.4146173,0 -2.5613914,1.146774 -2.5613914,2.561391 0,1.414612 1.1467741,2.561392 2.5613914,2.561392 1.4146112,0 2.5613914,-1.14678 2.5613914,-2.561392 0,-1.414617 -1.1467802,-2.561391 -2.5613914,-2.561391 z m -3.4654119,2.561391 c 0,-1.913895 1.5515161,-3.465411 3.4654119,-3.465411 1.9138716,0 3.4654114,1.551516 3.4654114,3.465411 0,1.913872 -1.5515398,3.465412 -3.4654114,3.465412 -1.9138958,0 -3.4654119,-1.55154 -3.4654119,-3.465412 z m -3.0134017,0 c 0,-0.24963 0.202374,-0.45201 0.4520102,-0.45201 h 1.2053607 c 0.2496362,0 0.4520103,0.20238 0.4520103,0.45201 0,0.249631 -0.2023741,0.452011 -0.4520103,0.452011 H 1.7020102 C 1.452374,16.723197 1.25,16.520817 1.25,16.271186 Z m 10.848246,0 c 0,-0.24963 0.20238,-0.45201 0.45201,-0.45201 h 1.205361 c 0.24963,0 0.45201,0.20238 0.45201,0.45201 0,0.249631 -0.20238,0.452011 -0.45201,0.452011 h -1.205361 c -0.24963,0 -0.45201,-0.20238 -0.45201,-0.452011 z m -1.340662,3.02859 c 0.176525,-0.176525 0.462738,-0.176525 0.639263,0 l 1.339155,1.339336 c 0.176525,0.176525 0.176465,0.462738 -6e-5,0.639263 -0.176525,0.176525 -0.462738,0.176465 -0.639203,-6e-5 l -1.339155,-1.339337 c -0.176526,-0.176525 -0.176526,-0.462677 0,-0.639202 z m -6.057438,6e-5 c 0.1765191,0.176525 0.1765191,0.462738 0,0.639263 l -1.3392943,1.339276 c -0.176519,0.176525 -0.4627139,0.176525 -0.6392389,0 -0.1765191,-0.176525 -0.1765191,-0.462738 0,-0.639203 l 1.3392943,-1.339336 c 0.176519,-0.176525 0.4627138,-0.176525 0.6392389,0 z m 3.0286676,1.340783 c 0.2496302,0 0.4520102,0.20238 0.4520102,0.45201 v 1.205361 c 0,0.24963 -0.20238,0.45201 -0.4520102,0.45201 -0.2496302,0 -0.4520103,-0.20238 -0.4520103,-0.45201 v -1.205361 c 0,-0.24963 0.2023801,-0.45201 0.4520103,-0.45201 z"
     fill="#1c274c"
     id="path60"
     style="stroke-width:0.60268;fill:#000000" />
  <path
     d="m 12.788433,5.6864516 c 0,2.4898094 2.018375,4.5081644 4.508158,4.5081644 1.897037,0 3.520376,-1.1717216 4.185832,-2.8308765 -0.51924,0.2086779 -1.087419,0.3262909 -1.681295,0.3262909 -2.48981,0 -4.50816,-2.0183556 -4.50816,-4.508155 0,-0.5910906 0.115886,-1.1625205 0.322695,-1.6797722 -1.657242,0.6663668 -2.82723,2.2887251 -2.82723,4.1843484 z"
     stroke="#000000"
     stroke-width="1.00181"
     stroke-linecap="round"
     stroke-linejoin="round"
     id="path229" />
</svg>
