<?xml version="1.0" encoding="UTF-8" standalone="no"?>
<!-- Uploaded to: SVG Repo, www.svgrepo.com, Generator: SVG Repo Mixer Tools -->

<svg
   fill="#000000"
   width="800px"
   height="800px"
   viewBox="0 0 24 24"
   version="1.2"
   id="svg6"
   sodipodi:docname="Thermometer.svg"
   inkscape:version="1.2.2 (b0a8486541, 2022-12-01)"
   xmlns:inkscape="http://www.inkscape.org/namespaces/inkscape"
   xmlns:sodipodi="http://sodipodi.sourceforge.net/DTD/sodipodi-0.dtd"
   xmlns="http://www.w3.org/2000/svg"
   xmlns:svg="http://www.w3.org/2000/svg">
  <defs
     id="defs10" />
  <sodipodi:namedview
     id="namedview8"
     pagecolor="#ffffff"
     bordercolor="#000000"
     borderopacity="0.25"
     inkscape:showpageshadow="2"
     inkscape:pageopacity="0.0"
     inkscape:pagecheckerboard="0"
     inkscape:deskcolor="#d1d1d1"
     showgrid="false"
     inkscape:zoom="0.295"
     inkscape:cx="400"
     inkscape:cy="401.69492"
     inkscape:window-width="1920"
     inkscape:window-height="1142"
     inkscape:window-x="1920"
     inkscape:window-y="0"
     inkscape:window-maximized="1"
     inkscape:current-layer="svg6" />
  <g
     id="g4"
     transform="matrix(1.2237288,0,0,1.0915254,-6.8644068,-0.79322035)">
    <path
       d="M 13,15.071 V 9.5 C 13,9.225 12.775,9 12.5,9 12.225,9 12,9.225 12,9.5 v 5.571 c -0.86,0.224 -1.5,1 -1.5,1.929 0,1.103 0.896,2 2,2 1.104,0 2,-0.897 2,-2 0,-0.929 -0.64,-1.705 -1.5,-1.929 z m 3,-1.612 V 5.5 C 16,3.57 14.43,2 12.5,2 10.57,2 9,3.57 9,5.5 v 7.959 C 8.078,14.361 7.5,15.61 7.5,17 c 0,2.757 2.243,5 5,5 2.757,0 5,-2.243 5,-5 0,-1.39 -0.578,-2.639 -1.5,-3.541 z M 12.5,20 c -1.654,0 -3,-1.346 -3,-3 0,-1.105 0.607,-2.062 1.5,-2.583 V 5.5 C 11,4.673 11.673,4 12.5,4 13.327,4 14,4.673 14,5.5 v 8.917 c 0.893,0.521 1.5,1.478 1.5,2.583 0,1.654 -1.346,3 -3,3 z"
       id="path2" />
  </g>
  <path
     d="m 18.533685,1.822966 c -0.0777,-0.086857 -0.19034,-0.1414826 -0.315876,-0.1418219 h -6.79e-4 c 0,0 0,0 0,0 -0.125197,0 -0.237501,0.054286 -0.314858,0.1404648 l -3.39e-4,3.393e-4 C 17.22268,2.5782188 13.8349,6.431501 13.8349,8.0427747 c 0,1.7944888 2.022489,3.9866223 4.38257,3.9866223 2.411991,0 4.354409,-2.180937 4.354409,-3.9866223 0,-1.6448631 -3.624943,-5.7563427 -4.037855,-6.2198087 z m -0.316555,9.358213 c -2.016382,0 -3.534352,-1.903739 -3.534352,-3.1384043 0,-0.9276105 2.049293,-3.5957632 3.533334,-5.2962695 1.473524,1.7008456 3.50721,4.3676411 3.50721,5.2962695 0,1.2346653 -1.505756,3.1384043 -3.506192,3.1384043 z M 18.053255,9.8789958 C 17.144305,9.6041734 16.422981,8.9554567 16.055194,8.1167393 l -0.0078,-0.020357 C 15.984965,7.935221 15.830929,7.822917 15.650767,7.822917 c -0.234108,0 -0.424109,0.1900007 -0.424109,0.4241087 0,0.052929 0.0098,0.1038218 0.02748,0.1503041 l -10e-4,-0.00308 C 15.72339,9.5149147 16.66084,10.3594 17.815094,10.693258 l 0.02816,0.0068 c 0.03121,0.0085 0.06684,0.01323 0.103822,0.01323 6.79e-4,0 0.0014,0 0.0017,0 v 0 c 0.234108,-3.39e-4 0.42377,-0.19 0.42377,-0.424108 0,-0.196787 -0.134019,-0.3623589 -0.315876,-0.4101984 l -0.0031,-6.786e-4 z"
     id="path14"
     style="stroke-width:0.339287" />
</svg>
