<?xml version="1.0" encoding="UTF-8" standalone="no"?>
<!-- Uploaded to: SVG Repo, www.svgrepo.com, Generator: SVG Repo Mixer Tools -->

<svg
   fill="#000000"
   height="800px"
   width="800px"
   version="1.2"
   id="_x31_"
   viewBox="0 0 256 175"
   xml:space="preserve"
   sodipodi:docname="Turtle.svg"
   inkscape:version="1.4.2 (1:1.4.2+202505120737+ebf0e940d0)"
   xmlns:inkscape="http://www.inkscape.org/namespaces/inkscape"
   xmlns:sodipodi="http://sodipodi.sourceforge.net/DTD/sodipodi-0.dtd"
   xmlns="http://www.w3.org/2000/svg"
   xmlns:svg="http://www.w3.org/2000/svg"><defs
   id="defs1" /><sodipodi:namedview
   id="namedview1"
   pagecolor="#ffffff"
   bordercolor="#000000"
   borderopacity="0.25"
   inkscape:showpageshadow="2"
   inkscape:pageopacity="0.0"
   inkscape:pagecheckerboard="0"
   inkscape:deskcolor="#d1d1d1"
   inkscape:zoom="1.11375"
   inkscape:cx="400"
   inkscape:cy="400"
   inkscape:window-width="1920"
   inkscape:window-height="1142"
   inkscape:window-x="1920"
   inkscape:window-y="0"
   inkscape:window-maximized="1"
   inkscape:current-layer="_x31_" />
<path
   d="m 72.6,29.7 v 0.2 L 57.6,17.3 C 69,11.2 81.5,7.8 95.1,7.8 c 13.6,0 26.2,3.4 37.1,9.3 l -15,12.6 -44.6,0 z m 79.9,63.5 c 24.7,0 45,20.3 45,45 v 4.5 0 c -0.2,9.5 -7.9,17 -17.4,17 -9.5,0 -17.2,-7.5 -17.4,-17 v 0 -4.5 c 0,-5.7 -4.5,-10.1 -10.1,-10.1 -9.7,0 -17.6,-7.9 -17.6,-17.6 0,-9.7 7.8,-17.3 17.5,-17.3 z M 35.7,92.8 c 9.7,0 17.6,7.9 17.6,17.6 v 32.4 0 c -0.4,9.3 -7.9,16.8 -17.4,16.8 -9.5,0 -17,-7.5 -17.4,-16.8 v 0 -32.7 c -0.2,-9.6 7.7,-17.3 17.2,-17.3 z m -30.8,9.1 c 0,-4.3 1.4,-8.5 3.4,-12 2.2,1.6 4.7,2.6 7.7,2.6 -4.1,4.9 -6.5,11 -6.5,17.6 v 5.5 C 6.3,111.8 4.9,107 4.9,101.9 Z m 121,8.7 c 0,5.7 1.8,10.7 4.7,15 -11.6,2.6 -23.5,4.1 -35.7,4.1 -11.4,0 -22.1,-1.2 -32.7,-3.4 v -16 c 0,-6.5 -2.4,-12.6 -6.3,-17 h 76.5 c -3.8,4.7 -6.5,10.6 -6.5,17.3 z m 6.7,-17.2 v 0 c -0.2,0 0,-0.2 0,-0.2 z M 11.8,79.6 c 0,-2.4 2,-4.7 4.5,-4.7 h 0.6 C 20.3,53.2 32.3,34.3 49.6,22.4 L 67.2,37.2 C 57.5,48.6 50.8,61.3 46.9,75.1 h 9.5 c 4.3,-13 11.4,-25.6 21.5,-35.9 h 32.9 c 10.1,10.5 17,22.7 21.5,35.9 h 9.5 c -3.9,-13.4 -10.3,-26 -19.9,-36.9 l 18.5,-15.6 c 17,12.2 29.4,30.8 32.7,52.5 h 1.2 c 2.4,0 4.5,2 4.5,4.5 0,2.4 -2,4.5 -4.5,4.5 H 16.5 c -2.7,0 -4.7,-2.1 -4.7,-4.5 z M 176,89.5 c 4.9,-0.6 8.9,-4.7 8.9,-9.9 v -8.9 c 0,-18.7 15,-33.9 33.9,-33.9 18.7,0 33.9,15 33.9,33.9 v 8.9 c 0,4.9 -4.1,8.9 -8.9,8.9 h -24.5 c -2.2,11.4 -8.5,20.7 -17.6,27.4 C 196.5,104.3 187.4,95.2 176,89.5 Z m 57.4,-25.1 c 3,0 5.7,-2.4 5.7,-5.7 0,-3 -2.4,-5.7 -5.7,-5.7 -3.3,0 -5.7,2.4 -5.7,5.7 0.1,3.2 2.5,5.7 5.7,5.7 z"
   id="path1" />
</svg>
